<svg width="720" height="720" xmlns="http://www.w3.org/2000/svg" xmlns:xlink="http://www.w3.org/1999/xlink" overflow="hidden"><defs><clipPath id="clip0"><rect x="0" y="0" width="720" height="720"/></clipPath></defs><g clip-path="url(#clip0)"><rect x="0" y="0" width="720" height="720" fill="#FFFFFF"/><rect x="0" y="0" width="720" height="720" fill="#FF66FF"/><path d="M612.582 221.504C719.995 99.6015 681.161 57.0193 681.161 57.0193 667.941 43.6602 647.285 43.6602 634.065 57.0193L320.916 373.464 48.2529 630.627C29.249 649.831 29.249 681.559 48.2529 701.597 67.2566 720.801 98.6541 720.801 118.484 701.597L367.186 426.065C379.58 431.91 412.63 448.609 422.545 437.755L612.582 221.504Z" fill="#5F5F5F" fill-rule="evenodd"/><path d="M697.599 630.707 479.641 423 446.492 460.537C440.691 466.377 430.746 473.884 415 474.718L627.985 701.611C647.875 720.797 679.367 720.797 698.428 701.611 716.66 681.591 716.66 649.893 697.599 630.707Z" fill-rule="evenodd"/><path d="M259.94 356.745C259.94 356.745 274.809 353.401 291.329 355.909L297.937 349.222 354.934 291.546C352.456 275.664 355.76 259.782 355.76 259.782 361.542 223.839 347.499 182.044 305.372 139.414 235.985 69.1993 136.861 4 136.861 4L121.992 19.0459 288.851 187.895C293.807 192.911 293.807 200.434 288.851 205.449 283.895 210.464 276.461 210.464 271.504 205.449L104.646 36.5996 81.5169 60.0045 248.375 228.854C253.332 233.869 253.332 241.392 248.375 246.408 243.419 251.423 235.985 251.423 231.029 246.408L64.1702 77.5582 41.0413 100.963 207.9 269.813C212.856 274.828 212.856 282.351 207.9 287.366 202.944 292.382 195.509 292.382 190.553 287.366L22.8685 119.353 8 134.399C8 134.399 78.2128 241.392 140.991 305.756 183.119 348.386 224.42 362.596 259.94 356.745Z" fill-rule="evenodd"/></g></svg>