<?xml version="1.0" encoding="UTF-8" standalone="no"?>
<svg
   xmlns:dc="http://purl.org/dc/elements/1.1/"
   xmlns:cc="http://creativecommons.org/ns#"
   xmlns:rdf="http://www.w3.org/1999/02/22-rdf-syntax-ns#"
   xmlns:svg="http://www.w3.org/2000/svg"
   xmlns="http://www.w3.org/2000/svg"
   xmlns:xlink="http://www.w3.org/1999/xlink"
   xmlns:sodipodi="http://sodipodi.sourceforge.net/DTD/sodipodi-0.dtd"
   xmlns:inkscape="http://www.inkscape.org/namespaces/inkscape"
   width="300"
   height="150"
   viewBox="63 85 79.375794 39.687897"
   version="1.1"
   id="svg8"
   inkscape:version="1.0.2 (e86c870879, 2021-01-15)"
   sodipodi:docname="michelin.svg">
  <defs
     id="defs2">
    <polygon
       id="path-1"
       points="102.88802,72.60843 0.086823801,72.60843 0.086823801,0.30527915 102.88802,0.30527915 " />
  </defs>
  <sodipodi:namedview
     id="base"
     pagecolor="#ffffff"
     bordercolor="#666666"
     borderopacity="1.0"
     inkscape:pageopacity="0.0"
     inkscape:pageshadow="2"
     inkscape:zoom="1.0748023"
     inkscape:cx="83.734344"
     inkscape:cy="-34.364393"
     inkscape:document-units="mm"
     inkscape:current-layer="layer1"
     inkscape:document-rotation="0"
     showgrid="false"
     units="px"
     scale-x="1.00001"
     viewbox-x="10"
     inkscape:window-width="1267"
     inkscape:window-height="1198"
     inkscape:window-x="925"
     inkscape:window-y="123"
     inkscape:window-maximized="0" />
  <metadata
     id="metadata5">
    <rdf:RDF>
      <cc:Work
         rdf:about="">
        <dc:format>image/svg+xml</dc:format>
        <dc:type
           rdf:resource="http://purl.org/dc/dcmitype/StillImage" />
        <dc:title></dc:title>
      </cc:Work>
    </rdf:RDF>
  </metadata>
  <g
     inkscape:label="Layer 1"
     inkscape:groupmode="layer"
     id="layer1">
    <g
       id="Group-28"
       style="fill:none;fill-rule:evenodd;stroke:none;stroke-width:1"
       transform="matrix(0.26458333,0,0,0.26458333,78.229331,91.502489)">
      <g
         id="Group-3"
         transform="translate(34.415094,0.055145)">
        <mask
           id="mask-2"
           fill="#ffffff">
          <use
             xlink:href="#path-1"
             id="use17"
             x="0"
             y="0"
             width="100%"
             height="100%" />
        </mask>
        <g
           id="Clip-2" />
        <path
           d="m 2.3751076,18.977334 c 0.010038,0.02487 0.019717,0.04902 0.03083,0.07389 0.050906,0.116778 0.1233208,0.291583 0.2150944,0.513244 0.5180188,1.244905 1.5956415,3.835632 2.8915849,6.155322 0.7298868,1.307257 1.4303773,2.351046 2.1215471,3.153349 -0.5352264,0.77347 -1.2755094,2.061626 -1.6719999,3.711647 -0.4101133,1.70841 -0.2276416,3.919972 0.4997358,6.067018 0.3029245,0.894212 0.6883019,1.733279 1.1428679,2.49954 -0.00394,0.0029 -0.00825,0.0065 -0.012189,0.0094 0.0043,0.0079 0.00825,0.0155 0.012547,0.02307 -0.022226,0.06704 -0.038,0.136601 -0.047321,0.209407 -0.5302076,4.209752 1.2636792,8.314261 4.7983962,10.978155 0.56534,0.426021 1.155057,0.797619 1.760189,1.116954 0.514075,1.597039 1.585962,3.07622 3.113132,4.290128 1.032094,0.819243 2.236264,1.483865 3.485245,1.932233 0.0082,0.01261 0.01542,0.02487 0.02366,0.03748 1.328925,1.899435 3.370887,3.283463 5.904698,4.002509 0.635963,0.180572 1.286265,0.311766 1.941227,0.397187 0.03011,0.03893 0.06238,0.07641 0.09894,0.111371 1.229981,1.198049 2.843547,2.104876 4.685472,2.636862 -0.307227,2.43935 -0.01147,4.312474 0.495075,5.712361 h 69.024181 c 0.0179,-2.281124 -0.58582,-4.557202 -1.82118,-6.59576 -0.0319,-0.05334 -0.0685,-0.101279 -0.10754,-0.147053 0.43162,-3.195159 -0.30042,-6.398968 -2.100046,-9.101428 -1.951622,-2.929166 -4.919207,-4.919067 -8.359282,-5.603152 -0.347736,-0.06848 -0.70551,-0.125067 -1.064359,-0.166515 -0.04804,-0.0058 -0.095,-0.0068 -0.142679,-0.0065 -3.512491,-3.430516 -7.227887,-5.1847 -8.543906,-5.736869 0.04194,-0.184898 0.07887,-0.366912 0.119019,-0.53523 0.04732,-0.01298 0.09428,-0.02847 0.14017,-0.04794 3.744075,-1.637407 5.971736,-4.413753 6.440283,-8.027004 0.373547,-2.857442 -0.41334,-6.023406 -2.015793,-8.232445 0.0075,-0.03821 0.01398,-0.07605 0.01828,-0.115696 0.381793,-3.863025 -0.197528,-7.232629 -1.72183,-10.015824 -1.241811,-2.267067 -3.126396,-4.076395 -5.304226,-5.094954 -0.01004,-0.0043 -0.02079,-0.0076 -0.03011,-0.01189 -0.610509,-2.072077 -3.24183,-3.6572223 -6.053471,-3.580452 -2.217623,0.060191 -4.637793,1.105421 -5.547642,2.820318 -3.376981,1.222558 -8.615245,4.38564 -10.198339,12.383809 -2.334132,1.763915 -3.86668,4.353562 -4.236283,7.195145 -0.41083,3.15371 0.65066,6.310304 2.787981,8.674686 -2.163849,0.0076 -5.636906,0.188501 -9.726925,1.024685 -0.0423,0.0083 -0.08174,0.01874 -0.121886,0.03172 -3.154001,-2.237512 -7.218925,-3.092798 -10.85151,-2.135512 -0.146264,0.03856 -0.277472,0.104883 -0.391472,0.191385 -1.008434,-0.307081 -2.110075,-0.533788 -3.322132,-0.681562 -0.07457,-0.0094 -0.149132,-0.01117 -0.22083,-0.0054 -0.528057,-1.713095 -1.433604,-3.266523 -2.680792,-4.518996 -0.06238,-0.06416 -0.206849,-0.17805 -0.208642,-0.185619 -0.0036,0.004 -0.0075,0.0083 -0.01111,0.01226 -0.185698,-1.252474 -0.539887,-2.618481 -0.685793,-3.114785 -0.360641,-1.225802 -0.916301,-2.583519 -2.526641,-4.205067 -1.025283,-1.031534 -2.119038,-1.655428 -2.868283,-2.000714 0.152,-0.410162 0.241623,-0.760494 0.286434,-0.965936 0.01757,-0.08074 0.03083,-0.162551 0.03943,-0.245089 0.0043,-0.03893 0.404377,-3.904113 0.860736,-6.198572 0.0065,-0.02811 0.01183,-0.05623 0.01577,-0.08434 1.249698,-7.8655337 1.260812,-7.980509 1.269057,-8.0644878 0.0018,-0.015859 0.0036,-0.031717 0.0047,-0.047216 0.05485,-0.7075124 -0.187849,-1.3952014 -0.684717,-1.9354771 -0.60083,-0.6527279 -1.516773,-1.0272084 -2.51266,-1.0272084 -1.397755,0 -2.646736,0.7179646 -3.428245,1.9700777 C 16.923372,9.2120057 16.58173,10.096126 16.344051,10.840401 15.04273,8.3091435 13.342409,4.9712565 12.115655,2.5499279 12.094145,2.5073979 12.070843,2.4659491 12.047541,2.4248608 11.622013,1.705094 10.645843,0.86494558 9.2957679,0.86458516 c -0.4043773,0 -0.8080377,0.0749682 -1.2052453,0.22346294 C 7.4982962,0.58273357 6.7702019,0.30520707 5.9736358,0.30520707 5.5853906,0.30520707 5.1889,0.37260636 4.7945604,0.50560283 3.4136547,0.96982897 2.6117113,2.2086064 2.6203151,3.6805781 1.5426925,4.0903802 0.80850377,4.9463873 0.60093774,6.0449597 0.4579,6.8011293 0.60954151,7.4542177 0.68231509,7.7685074 0.69271132,7.8153625 0.70920189,7.8852848 0.7429,7.9962954 0.7088434,8.0438714 0.67586226,8.0928891 0.64431509,8.142988 -0.12536415,9.357617 -0.52149623,11.594409 2.3751076,18.977334"
           id="Fill-1"
           fill="#1d1d1b"
           mask="url(#mask-2)" />
      </g>
      <path
         d="m 90.144568,42.955984 c 0.01255,7.21e-4 1.013094,0.07209 1.612132,0.304559 1.011302,0.389979 3.035698,2.336629 4.13017,2.504947 0.191434,0.02271 0.692604,-0.100559 0.147339,-0.485852 -0.150924,-0.109208 -1.41532,-1.240579 -0.946773,-1.825187 0.0054,-0.0097 0.01147,-0.0137 0.01792,-0.02451 0.165982,-0.234636 0.385378,-0.286897 0.619472,-0.240403 1.584887,0.394664 2.904132,0.623894 3.359057,0.68841 0.278905,0.03929 0.481453,0.0465 0.595811,-0.0501 0.111491,-0.09803 0.02832,-0.166876 -0.278547,-0.256261 -2.444547,-0.659937 -5.138246,-1.717781 -7.032151,-3.143619 -2.535604,-1.956381 -3.888547,-5.038367 -3.488113,-8.107017 0.292887,-2.257336 1.454754,-4.248318 3.288434,-5.673075 0.72917,-0.538834 1.889603,-0.941067 2.223358,-1.060728 0.88834,-0.322219 -0.566415,-0.557575 -0.673245,-0.574876 -0.373547,-0.06091 -0.394698,-0.447286 -0.08891,-1.621548 1.692793,-5.463307 5.439377,-7.875264 8.547128,-8.935632 0.54527,-0.166876 1.38019,-0.405837 1.94696,-0.49306 0.85536,-0.131915 0.53774,-0.520452 -0.4456,-0.635428 0,0 -0.33232,-0.01982 -0.16849,-0.235356 0.0283,-0.03316 0.2133,-0.250135 0.48862,-0.428545 0.69906,-0.446925 1.71,-0.787887 2.81523,-0.817802 1.99823,-0.05334 3.71934,1.066855 3.9226,2.103435 0,0 0.0721,0.207244 -0.171,0.215173 -0.38322,0.01334 -0.6926,0.176247 -0.16275,0.438996 0.12153,0.06199 0.65496,0.225626 1.40492,0.571273 0.0341,0.02162 0.0713,0.04145 0.10898,0.05947 1.50602,0.703909 6.19616,3.570361 5.85344,11.675216 v -3.6e-4 c -0.0111,0.243646 -0.0323,0.485851 -0.0452,0.728417 -0.0147,0.222021 -0.0455,0.447286 -0.0738,0.670749 -0.43951,-0.05226 -0.63166,0.137321 -0.31691,0.453773 0.22872,0.228149 0.79549,0.908629 1.12172,1.448905 1.05719,1.754184 1.58023,4.073873 1.30132,6.208304 -0.3757,2.892403 -2.15453,4.654876 -3.93622,5.710558 -0.798,0.454495 -2.64244,1.374658 -4.94717,1.892226 -0.47035,0.106325 -0.24987,0.72229 1.93118,0.690933 0.18427,0.02054 0.5804,0.04145 0.69583,0.256983 0.25489,0.471074 -0.18318,1.395561 -1.12924,1.956742 -0.817,0.485491 -0.16276,0.585689 0.97187,0.244367 0.33124,-0.05442 1.20237,0.299152 1.31637,0.346728 1.84444,0.819965 6.48797,3.231562 9.97895,7.959965 2.41515,3.486742 3.29273,6.23894 2.53775,7.958523 -0.73383,1.673809 -2.91847,1.981971 -2.93496,1.983774 -0.0118,0.0022 -0.0247,0.0032 -0.0366,0.005 -8.43779,1.321674 -23.0703,-1.008467 -33.164315,-3.99422 -1.806076,-0.531985 -4.504076,-1.486028 -6.771887,-2.496657 2.229811,-4.850586 1.361547,-10.987526 -2.295415,-15.131682 -0.04911,-0.05442 -0.09858,-0.107767 -0.148415,-0.162191 3.594226,-0.611279 6.588698,-0.701024 8.319132,-0.683364"
         id="Fill-4"
         fill="#fefefe" />
      <path
         d="m 131.43067,58.060346 c 1.6211,2.433944 2.20328,5.356622 1.63759,8.228841 -0.47572,2.420968 -1.7541,4.595767 -3.59029,6.184516 0.0531,-2.00648 -0.30005,-4.350678 -1.77381,-6.204339 0.58506,-0.466389 1.1253,-1.085958 1.49276,-1.910608 1.11562,-2.510353 0.19143,-5.932219 -2.74676,-10.170445 -0.006,-0.009 -0.0125,-0.01838 -0.019,-0.02667 -0.0624,-0.0847 -0.12655,-0.167237 -0.19036,-0.250856 2.10649,0.799421 3.91149,2.230665 5.18987,4.149562"
         id="Fill-6"
         fill="#fefefe" />
      <path
         d="m 80.314613,45.281296 c 3.368736,3.818332 3.93551,9.633053 1.349717,13.825145 -2.902339,4.702813 -8.104037,7.02935 -12.947604,5.78841 -0.705509,-0.180573 -1.364773,-0.427823 -1.976358,-0.728057 0.462094,-0.07136 0.91666,-0.165434 1.360472,-0.286897 4.765773,-1.299689 8.323075,-5.718127 8.854,-10.995816 0.33483,-3.332481 -0.602981,-6.670728 -2.573604,-9.159096 -0.694755,-0.877632 -1.492396,-1.622629 -2.40117,-2.246523 3.076925,0.01442 6.210132,1.395562 8.334547,3.802834"
         id="Fill-8"
         fill="#fefefe" />
      <path
         d="m 72.645389,45.114131 c 1.612849,2.037478 2.378943,4.787152 2.101471,7.545838 -0.438792,4.364374 -3.342207,8.007901 -7.226452,9.066827 -3.269793,0.89241 -6.411963,0.116777 -8.55968,-1.314467 4.736378,-0.09227 9.289925,-3.364198 10.812793,-8.131166 0.76466,-2.393576 0.714113,-4.992233 -0.143038,-7.319491 -0.395057,-1.072982 -0.956811,-2.067032 -1.652283,-2.94935 2.002887,0.639032 3.520736,1.653626 4.667189,3.101809"
         id="Fill-10"
         fill="#fefefe" />
      <path
         d="m 65.234528,45.249795 c 0.171717,-0.907908 0.246283,-1.813293 0.23051,-2.702459 2.321585,2.249766 3.244698,5.772191 2.19683,9.051689 -1.445434,4.521159 -6.233793,7.388692 -10.674057,6.39248 -1.872754,-0.420615 -4.059905,-1.584784 -5.386679,-3.325632 0.803736,0.174085 1.619661,0.263109 2.434151,0.263109 1.542585,0 3.084094,-0.31465 4.546377,-0.954042 3.416774,-1.493958 5.903623,-4.755795 6.652868,-8.725145"
         id="Fill-12"
         fill="#fefefe" />
      <path
         d="m 61.915515,37.812013 c 0.0054,0.0072 0.009,0.0094 0.0093,0.0054 1.185887,1.984134 1.609264,4.481873 1.129962,7.016375 -0.611585,3.244176 -2.615189,5.896537 -5.358,7.095307 -3.124245,1.367088 -6.71166,0.885562 -9.595358,-1.287795 -2.289321,-1.72571 -3.686,-4.178396 -3.952717,-6.81742 0.0014,0.0014 -3.59e-4,-0.005 -0.0057,-0.01658 0.229075,0.201117 0.462811,0.389979 0.704792,0.563703 1.744415,1.264728 3.882095,1.932954 6.182528,1.932954 1.56517,0 2.714491,-0.311046 2.934246,-0.374841 4.057038,-1.152636 6.04666,-3.602078 7.000962,-5.453936 0.493283,-0.958728 0.782585,-1.87853 0.95,-2.663173"
         id="Fill-14"
         fill="#fefefe" />
      <path
         d="m 36.956147,9.3020756 c 0.03083,-0.017661 0.06058,-0.038205 0.08783,-0.063435 0.07815,-0.071364 0.169566,-0.1225442 0.269227,-0.1553428 0.03119,-0.00649 0.06274,-0.011173 0.09643,-0.013336 0.120094,-0.00721 0.216169,-0.012615 0.293962,-0.015859 0.06811,0.010092 0.136943,0.02559 0.205774,0.05118 0.638113,0.2339152 1.109528,1.0506362 1.260094,2.1845302 0.429113,3.253908 1.947679,5.412848 2.012207,5.503315 0.09428,0.131554 0.241623,0.201837 0.391472,0.201837 0.09715,0 0.195377,-0.02956 0.28034,-0.09047 0.21617,-0.156064 0.265641,-0.458099 0.110415,-0.675795 -0.01434,-0.01982 -1.441849,-2.050092 -1.840132,-5.066481 C 39.921581,9.6419555 39.235072,8.5606834 38.239185,8.1955739 37.997921,8.10727 37.750204,8.0694254 37.50894,8.0777152 37.377732,7.7753194 37.260147,7.4815738 37.22394,7.3255102 37.12715,6.9081392 36.942166,6.0863724 37.858109,5.7713618 c 0.05628,-0.019463 0.114359,-0.035682 0.173868,-0.049739 0.03083,0.00216 0.06166,0.0018 0.09357,-0.00216 0.664642,-0.082898 1.53685,0.2223816 2.412642,3.3548268 0.804453,2.8751024 2.631679,5.6802824 2.708038,5.7985014 0.09249,0.140926 0.246283,0.217336 0.402943,0.217336 0.0907,0 0.18283,-0.02595 0.264208,-0.08001 0.221905,-0.147053 0.283207,-0.447286 0.136943,-0.670389 C 44.032392,14.31197 42.228826,11.543553 41.464525,8.8126198 41.087392,7.4624714 40.558619,5.9941039 39.654506,5.2437011 39.525449,4.9117505 39.38277,4.541595 39.342619,4.423376 39.188826,3.9598707 39.029298,2.9362664 39.905091,2.6418 c 0.177094,-0.05983 0.338056,-0.086141 0.483603,-0.086141 0.695472,0 1.051812,0.6015477 1.226397,1.0513568 0.02509,0.064156 0.05449,0.1319152 0.0864,0.2011167 l 3.960962,9.5090665 c 0.02438,0.07208 0.06668,0.131555 0.12117,0.173364 0.126905,0.106686 0.296472,0.141287 0.457075,0.07965 0.227283,-0.09515 0.339849,-0.353576 0.248076,-0.584608 L 42.640732,3.7443371 c 0.06632,-0.1755265 0.198962,-0.3384382 0.436642,-0.4595406 0.240547,-0.1229046 0.451698,-0.1697598 0.633094,-0.1697598 0.587207,0 0.875075,0.4865725 0.875075,0.4865725 0,0 5.114585,10.0954768 6.085736,11.8392088 -0.391472,0.658134 -0.708377,1.301491 -0.749604,1.461159 -0.06955,0.257703 0.105397,0.490897 0.227283,0.247611 0.285359,-0.4253 0.698699,-0.929534 1.050019,-1.335011 0.0029,-0.0036 0.0072,-0.0076 0.01111,-0.01333 7.17e-4,-7.21e-4 7.17e-4,-0.0011 0.0025,-0.0018 0.0147,-0.0137 0.02509,-0.03316 0.03406,-0.05551 0.240547,-0.430706 0.99266,-2.441152 1.28949,-3.072615 0.211868,-0.920162 0.605132,-2.160742 1.110245,-2.9720561 0.436642,-0.699583 1.054321,-0.9410671 1.578434,-0.9410671 0.579321,0 1.043925,0.2951872 1.020623,0.5954205 -0.01398,0.135159 -1.253642,7.9372577 -1.253642,7.9372577 -0.324792,1.632361 -0.616603,3.965025 -0.772547,5.318057 -0.01004,0.33195 -0.05019,0.662819 -0.108622,0.981074 -0.0072,0.0674 -0.01111,0.103802 -0.01111,0.103802 0,0 -0.01577,0.07317 -0.04911,0.191746 -0.259188,1.17318 -0.721283,2.101632 -0.721283,2.101632 l 0.402585,1.860509 c 0.0029,-0.0011 0.0054,-0.0029 0.0075,-0.004 0.160604,0.784643 0.335548,1.62299 0.404378,1.877809 0.294321,1.055682 -0.08317,1.672368 0.107188,1.883576 0.267076,0.295548 0.920246,-1.109024 1.088736,-1.840325 0.133359,-0.579922 -0.0864,-1.763554 -0.274603,-2.586042 0.559962,0.262028 1.395962,0.740311 2.179622,1.53 1.341831,1.350148 1.715378,2.398982 1.969547,3.261477 0.253812,0.862855 0.680057,2.721562 0.708378,3.722099 0.0294,1.000898 -0.311887,6.319675 -6.56934,8.092601 0,0 -0.956453,0.288699 -2.32266,0.288699 -1.395246,0 -3.217453,-0.300593 -4.889812,-1.514862 -3.026735,-2.162184 -4.206886,-6.894912 -3.607132,-9.395173 0.283566,-1.177505 0.79334,-2.129385 1.194491,-2.747873 0.293245,0.17877 0.588642,0.316813 0.886906,0.414848 l 0.18032,0.860332 c 0.02043,0.102 0.509057,2.504947 1.433963,3.236969 0.542754,0.427102 1.436113,0.460261 1.697094,0.460261 0.275679,0 0.930283,-0.03028 1.047509,-0.316452 0.01936,-0.04685 0.05055,-0.168679 -0.07134,-0.291944 -0.04911,-0.05046 -0.127981,-0.09443 -0.289302,-0.182735 C 48.166864,34.35515 47.3366,33.905701 47.160223,33.087178 47.060562,32.626196 46.680562,31.005369 46.456147,30.049885 47.38643,29.30669 47.485374,28.488528 46.26794,28.74551 45.534468,28.900853 44.852619,28.555927 44.331015,28.138917 41.889694,25.99115 39.329355,19.39503 38.821732,18.226895 36.743921,12.931185 36.312298,10.093567 36.956147,9.3020756"
         id="Fill-16"
         fill="#fefefe" />
      <path
         d="m 135.10588,72.663503 h -2.70553 c 0.87651,-1.048474 1.59098,-2.228863 2.11008,-3.50188 0.40868,1.13966 0.60728,2.320049 0.59545,3.50188"
         id="Fill-18"
         fill="#fefefe" />
      <path
         d="m 69.965994,67.381056 c 0.459227,0.04902 0.918812,0.07533 1.377321,0.07533 4.552472,0 8.99417,-2.415561 11.817642,-6.578099 2.40332,1.088481 5.260849,2.103796 7.254773,2.691647 5.553736,1.642092 11.90583,2.970255 17.88868,3.738318 3.76415,0.483329 7.21534,0.725894 10.23921,0.725894 2.24917,0 4.26137,-0.134438 5.99037,-0.403675 0.11472,-0.01586 0.56857,-0.0865 1.16115,-0.286897 1.36693,1.447823 1.63544,3.543328 1.55084,5.319858 H 70.7009 c -0.545623,-1.078388 -1.02134,-2.782834 -0.734906,-5.282374"
         id="Fill-20"
         fill="#fefefe" />
      <path
         d="m 115.35757,24.339579 c -0.19036,-0.700304 -0.57251,-1.327442 -1.18947,-1.697237 -0.50942,-0.301675 -1.15542,-0.448728 -1.75768,-0.386375 -0.16168,0.0173 -0.32014,0.04866 -0.47285,0.09623 -1.49598,0.477201 -2.09574,1.813293 -2.53668,3.653258 -0.48755,2.01441 0.19251,4.392848 1.47304,4.797243 0.31296,0.09948 0.8403,0.183456 0.8403,0.183456 0.33124,0.06127 0.65604,0.09011 0.97187,0.05587 0.361,-0.03748 0.70766,-0.15282 1.03532,-0.395385 0.6123,-0.451611 1.0579,-1.187597 1.34792,-1.892226 0.29002,-0.705711 0.43628,-1.43593 0.475,-2.197866 0.0376,-0.740671 0.008,-1.50441 -0.18677,-2.216968 m -0.54276,3.143979 c -0.0731,0.361144 -0.17458,0.707872 -0.31188,1.038742 -0.29898,0.726615 -0.70193,1.302932 -1.13749,1.624431 -0.1875,0.137321 -0.39506,0.221661 -0.62808,0.260586 0.71519,-0.428904 1.27443,-1.429441 1.38306,-2.639385 0.14949,-1.672007 -0.62019,-3.107576 -1.72183,-3.200565 -0.52591,-0.04541 -1.02959,0.223102 -1.43002,0.695979 0.39039,-0.0036 0.72021,0.404395 0.74458,0.930614 0.0222,0.538474 -0.28715,0.991527 -0.69188,1.013873 -0.3291,0.01838 -0.61912,-0.253018 -0.7281,-0.644078 -0.0785,0.270679 -0.13443,0.559379 -0.16204,0.861414 -0.10145,1.117314 0.20936,2.12542 0.75319,2.702459 -0.33411,-0.204 -0.63417,-0.672551 -0.82273,-1.305456 -0.0832,-0.275003 -0.13874,-0.564424 -0.171,-0.861053 -0.0767,-0.750763 -0.0767,-1.527837 0.30185,-2.553243 0.014,-0.04902 0.0294,-0.09659 0.0448,-0.143089 0.39649,-1.032975 1.14681,-2.134431 2.79085,-1.866996 2.16385,0.351413 1.93764,3.195519 1.78671,4.085767 m -2.88441,7.332826 c -1.40779,0.314651 -2.88083,0.354297 -4.33164,0.232834 -2.36174,-0.197152 -4.74534,-0.727696 -6.94504,-1.656148 -0.19753,-0.08434 -0.38789,-0.174445 -0.58183,-0.262749 -0.09787,-0.04217 -0.188567,-0.101279 -0.291454,-0.139845 v -0.0029 c -0.312245,-0.09912 -0.624491,0.109569 -0.639189,0.428544 -0.0097,0.241845 0.145547,0.389979 0.346302,0.494141 0.590071,0.306361 1.223891,0.54388 1.849811,0.76446 0.54706,0.243647 0.95,0.738869 1.3533,1.1566 0.49974,0.516488 1.03747,0.997654 1.66913,1.35952 1.19091,0.685166 2.68187,0.918 4.01653,0.710756 0.70193,-0.109208 1.36585,-0.363307 1.95808,-0.733823 0.43628,-0.272481 0.82524,-0.602629 1.22245,-0.924488 0.23696,-0.190664 0.47751,-0.382049 0.74459,-0.537392 0.1563,-0.08939 1.23715,-0.525138 1.81002,-0.855286 0,0.202198 -0.008,0.379526 0.1269,0.404395 0.14949,0.02775 0.28213,-0.251936 0.33483,-0.486572 0.0541,-0.234636 0.006,-0.461703 -0.0556,-0.609117 -0.0595,-0.148855 -0.3083,-0.36583 -0.54454,-0.395385 -0.23661,-0.02775 -0.2997,0.176968 -0.2047,0.256622 0.029,0.02379 0.0613,0.05695 0.0925,0.09659 -0.086,0.04433 -0.17028,0.100198 -0.24915,0.138763 -0.53057,0.254099 -1.10308,0.429625 -1.68132,0.560459 m -1.33359,1.11299 c -0.49758,0.394664 -1.03532,0.737788 -1.65802,0.933859 -0.61481,0.192466 -1.27515,0.22995 -1.9276,0.174805 -0.63668,-0.05551 -1.27013,-0.198594 -1.85375,-0.474678 -0.64421,-0.303838 -1.17765,-0.75617 -1.67165,-1.254636 2.31299,0.567307 4.75789,0.872947 7.11102,0.62065 m -3.93443,-10.314975 c 0.0398,-1.907364 -0.21187,-3.367082 -1.57987,-4.222728 -0.13945,-0.08758 -0.28894,-0.160029 -0.44668,-0.219138 -0.58649,-0.22058 -1.27085,-0.24653 -1.85554,-0.08542 -0.71519,0.193908 -1.26082,0.706431 -1.634,1.337173 -0.38323,0.643718 -0.61231,1.379704 -0.76789,2.110283 -0.15881,0.751845 -0.20757,1.502247 -0.10146,2.265986 0.10504,0.761576 0.3585,1.596678 0.84927,2.196424 0.26457,0.320417 0.58075,0.526219 0.93064,0.656693 0.30794,0.115335 0.64026,0.174805 0.98513,0.201477 0,0 0.55064,0.05659 0.88942,0.04361 1.38449,-0.05803 2.68724,-2.193541 2.73098,-4.28436 m -1.39811,2.568381 c -0.41872,0.664262 -0.92742,1.07118 -1.36657,1.091364 -0.038,0.0014 -0.0817,0.0018 -0.12726,0.0014 0.76107,-0.405477 1.36047,-1.429081 1.47052,-2.674707 0.14878,-1.672367 -0.64133,-3.110459 -1.76879,-3.207053 -0.53558,-0.04686 -1.04894,0.22058 -1.4569,0.691293 0.40079,-0.0029 0.73669,0.408361 0.76251,0.933499 0.0233,0.537752 -0.29038,0.990445 -0.70408,1.012791 -0.33626,0.01658 -0.63345,-0.255901 -0.7453,-0.648042 -0.0796,0.271399 -0.13623,0.559738 -0.16383,0.862494 -0.0918,1.020721 0.16813,1.950615 0.63847,2.545315 -0.0674,-0.05695 -0.13049,-0.117859 -0.18821,-0.18706 -0.3506,-0.426021 -0.60406,-1.095329 -0.71268,-1.882134 -0.0488,-0.357901 -0.0606,-0.720128 -0.038,-1.092806 0.0825,-0.905385 0.60155,-3.735795 2.85502,-3.509449 1.71359,0.171922 2.17461,1.44458 2.30044,2.555046 0.003,0.0483 0.004,0.09876 0.008,0.149936 0.10862,1.098933 -0.0946,1.853301 -0.36817,2.56622 -0.11077,0.279689 -0.24306,0.546402 -0.39541,0.791851 m -5.14542,4.084686 c -0.0498,-0.190665 -0.293244,-0.193548 -0.376056,-0.192467 -0.211509,-0.0036 -0.494,0.06524 -0.700849,0.14381 -0.55817,0.198593 -1.017396,0.891328 -0.989075,1.312303 0.0014,0.06163 0.02438,0.114976 0.06596,0.158226 0.03334,0.03604 0.09751,0.0811 0.205415,0.08182 0,0 0.0065,0 0.01004,-0.0014 l 3.58e-4,7.21e-4 0.0018,7.21e-4 c 0.105755,-0.0025 0.171,-0.08542 0.179962,-0.188142 0.01004,-0.104883 0.07242,-0.301314 0.222623,-0.449809 0.150207,-0.149215 0.400792,-0.389979 1.119924,-0.54388 0.126189,-0.02955 0.309378,-0.131554 0.259908,-0.321858"
         id="Fill-22"
         fill="#1d1d1b" />
      <polygon
         id="Fill-24"
         fill="#ffe400"
         points="189.65646,72.663322 10.480364,72.663322 8.8255717,77.182679 188.00131,77.182679 " />
      <path
         d="M 30.54164,101.28503 37.157583,83.20832 H 24.860998 l -6.361057,9.708742 c 0,0 0.404019,-5.079816 0.506906,-6.302735 0.07277,-0.931336 -0.03908,-3.406007 -2.295415,-3.406007 H 6.6192057 L 3.5849057e-5,101.28503 H 7.8922057 l 4.7955283,-13.075106 -1.01166,13.075106 h 7.014585 l 8.601622,-12.845515 -4.695868,12.845515 z m 13.727679,0 6.614151,-18.07671 h -8.703434 l -6.625264,18.07671 z m 27.550358,-11.454639 2.63383,-6.349951 c -4.533113,-1.124523 -9.085943,-0.589293 -11.448754,-0.104883 -5.275189,1.085597 -12.423849,4.983222 -12.348208,12.091866 0.04589,4.101985 4.97083,6.377707 10.624585,6.219477 3.16834,-0.0854 6.185396,-0.67183 6.567547,-0.73779 l 2.097887,-5.473398 c -2.774,0.441159 -5.439377,1.111548 -7.531887,0.268877 -3.767377,-1.514502 -1.447226,-5.454297 1.215283,-6.681181 1.175491,-0.540996 2.768264,-1.052438 4.692642,-1.011349 0.794415,0.01622 2.741736,0.04974 3.497075,1.778332 z M 93.244149,101.28719 99.87264,83.20832 h -8.280416 l -2.401528,6.5107 H 84.8103 l 2.384679,-6.5107 h -8.308377 l -6.601245,18.07887 h 8.277188 l 2.259566,-6.121803 h 4.388642 l -2.256698,6.121803 z m 27.953661,-13.342538 1.74692,-4.736332 h -18.15719 l -6.616655,18.07887 H 116.5317 l 1.78241,-4.877979 H 108.176 l 0.74207,-2.009004 h 9.46129 l 1.62288,-4.449074 h -9.45985 l 0.722,-2.006481 z m 19.15307,7.336792 h -8.531 l 4.41517,-12.073124 h -8.46969 l -6.62706,18.07887 h 17.01324 z m 9.83663,6.003586 6.61486,-18.07671 h -8.71239 l -6.61487,18.07671 z m 28.32362,-18.07671 -4.54064,12.407597 c 0.0617,-1.250671 0.30794,-6.184876 0.46138,-9.026099 0.0624,-1.171017 -0.19,-2.064508 -0.74566,-2.657406 -0.67899,-0.716162 -1.57199,-0.724092 -1.58417,-0.724092 h -10.11768 l -6.61236,18.07887 h 7.34619 l 4.69228,-12.803343 -0.55638,12.803343 h 12.31989 l 6.6206,-18.07887 z"
         id="Fill-26"
         fill="#004f9e" />
    </g>
  </g>
</svg>
