<?xml version="1.0" encoding="UTF-8" standalone="no"?>
<svg
   xmlns:dc="http://purl.org/dc/elements/1.1/"
   xmlns:cc="http://creativecommons.org/ns#"
   xmlns:rdf="http://www.w3.org/1999/02/22-rdf-syntax-ns#"
   xmlns:svg="http://www.w3.org/2000/svg"
   xmlns="http://www.w3.org/2000/svg"
   xmlns:sodipodi="http://sodipodi.sourceforge.net/DTD/sodipodi-0.dtd"
   xmlns:inkscape="http://www.inkscape.org/namespaces/inkscape"
   width="300"
   height="150"
   viewBox="63 85 79.375794 39.687897"
   version="1.1"
   id="svg8"
   inkscape:version="1.0.2 (e86c870879, 2021-01-15)"
   sodipodi:docname="tripadvisor.svg">
  <defs
     id="defs2">
    <polygon
       id="path-1"
       points="102.88802,72.60843 0.086823801,72.60843 0.086823801,0.30527915 102.88802,0.30527915 " />
    <polygon
       id="path-1-6"
       points="102.88802,72.60843 0.086823801,72.60843 0.086823801,0.30527915 102.88802,0.30527915 " />
  </defs>
  <sodipodi:namedview
     id="base"
     pagecolor="#ffffff"
     bordercolor="#666666"
     borderopacity="1.0"
     inkscape:pageopacity="0.0"
     inkscape:pageshadow="2"
     inkscape:zoom="1.4"
     inkscape:cx="230.06872"
     inkscape:cy="246.43692"
     inkscape:document-units="mm"
     inkscape:current-layer="layer1"
     inkscape:document-rotation="0"
     showgrid="false"
     units="mm"
     scale-x="1.00001"
     viewbox-x="10"
     inkscape:window-width="1267"
     inkscape:window-height="1198"
     inkscape:window-x="165"
     inkscape:window-y="148"
     inkscape:window-maximized="0" />
  <metadata
     id="metadata5">
    <rdf:RDF>
      <cc:Work
         rdf:about="">
        <dc:format>image/svg+xml</dc:format>
        <dc:type
           rdf:resource="http://purl.org/dc/dcmitype/StillImage" />
        <dc:title></dc:title>
      </cc:Work>
    </rdf:RDF>
  </metadata>
  <g
     inkscape:label="Layer 1"
     inkscape:groupmode="layer"
     id="layer1">
    <g
       style="clip-rule:evenodd;fill-rule:evenodd"
       id="g140"
       transform="matrix(0.152241,0,0,0.152241,60.13357,75.225725)">
      <g
         transform="matrix(2,0,0,2,30,162.033)"
         id="g118">
        <path
           d="M 8.699,6.35 C 13.425,5.74 26.834,5.32 23.16,24.696 l 4.167,-0.339 C 25.502,12.414 29.32,6.324 41.258,5.74 21.458,-5.225 10.184,6.158 8.699,6.35 Z"
           fill="#fac415"
           id="path96" />
        <path
           d="m 27.132,21.628 c 1.642,4.443 5.903,7.411 10.64,7.411 6.222,0 11.343,-5.121 11.343,-11.343 0,-6.223 -5.121,-11.344 -11.343,-11.344 -1.342,0 -2.672,0.238 -3.931,0.703 -5.836,2.158 -8.864,8.735 -6.709,14.573 z"
           fill="#ffffff"
           id="path98" />
        <circle
           cx="12.626"
           cy="17.650999"
           fill="#ffffff"
           r="11.345"
           id="circle100" />
        <circle
           cx="12.463"
           cy="17.540001"
           fill="#ee6946"
           r="2.0969999"
           id="circle102" />
        <circle
           cx="37.744999"
           cy="17.540001"
           fill="#00af87"
           r="2.096"
           id="circle104" />
        <path
           d="M 47.898,10.18 C 48.426,8.367 49.265,6.66 50.379,5.136 L 41.96,5.129 C 36.926,1.977 31.082,0.355 25.144,0.461 19.06,0.331 13.067,1.974 7.9,5.189 L 0,5.193 c 1.104,1.513 1.939,3.205 2.469,5.001 -1.593,2.164 -2.453,4.783 -2.453,7.471 0,6.914 5.689,12.603 12.603,12.603 3.827,0 7.453,-1.744 9.843,-4.734 l 2.685,4.02 2.711,-4.054 c 2.389,3.05 6.055,4.834 9.929,4.834 6.919,0 12.613,-5.694 12.613,-12.613 0,-2.717 -0.878,-5.363 -2.502,-7.541 z M 37.37,5.094 C 30.961,5.28 25.67,10.34 25.197,16.734 24.72,10.278 19.351,5.183 12.879,5.045 16.764,3.431 20.937,2.62 25.144,2.66 29.345,2.597 33.513,3.426 37.37,5.094 Z M 12.626,27.719 h -10e-4 c -5.524,0 -10.069,-4.545 -10.069,-10.069 0,-5.525 4.545,-10.07 10.069,-10.07 5.524,0 10.07,4.545 10.07,10.07 v 0.002 C 22.688,23.173 18.147,27.713 12.626,27.719 Z M 41.26,27.148 c -5.182,1.91 -11.019,-0.779 -12.935,-5.96 v -0.003 c -0.411,-1.116 -0.622,-2.295 -0.622,-3.484 0,-5.525 4.546,-10.07 10.07,-10.07 5.525,0 10.07,4.545 10.07,10.07 0,4.207 -2.636,7.99 -6.583,9.447 z M 12.471,11.309 h -0.009 c -3.419,0 -6.231,2.813 -6.231,6.231 0,3.419 2.812,6.231 6.231,6.231 3.418,0 6.231,-2.812 6.231,-6.231 v -10e-4 c -0.006,-3.412 -2.81,-6.22 -6.222,-6.23 z m 0,10.316 h -0.008 c -2.241,0 -4.086,-1.844 -4.086,-4.085 0,-2.241 1.845,-4.085 4.086,-4.085 2.24,0 4.084,1.844 4.085,4.084 -0.005,2.237 -1.841,4.076 -4.077,4.086 z M 37.745,11.309 h -0.003 c -3.419,0 -6.231,2.813 -6.231,6.231 0,3.419 2.812,6.231 6.231,6.231 3.418,0 6.231,-2.812 6.231,-6.231 v -10e-4 c -0.005,-3.415 -2.813,-6.224 -6.228,-6.23 z m 0,10.316 h -0.002 c -2.241,0 -4.085,-1.844 -4.085,-4.085 0,-2.241 1.844,-4.085 4.085,-4.085 2.241,0 4.085,1.844 4.086,4.084 -0.003,2.24 -1.845,4.082 -4.084,4.086 z"
           id="path106" />
        <path
           d="m 178.929,3.712 c 0,1.332 1.097,2.427 2.428,2.427 1.333,0 2.429,-1.096 2.429,-2.428 0,-1.333 -1.096,-2.429 -2.428,-2.429 -1.333,0.002 -2.429,1.098 -2.429,2.43 z"
           fill="#00af87"
           id="path108" />
        <path
           d="m 63.567,3.544 -3.679,1.268 v 4.806 h -4.082 v 3.222 h 3.964 v 10.343 c 0,4.924 1.679,6.93 5.791,6.93 1.027,0.003 2.05,-0.131 3.042,-0.4 l 0.161,-0.043 -0.046,-3.337 -0.283,0.099 c -0.616,0.246 -1.269,0.389 -1.931,0.423 -1.931,0 -2.65,-1.092 -2.65,-4.025 v -9.99 h 4.711 V 9.618 H 63.854 V 3.445 Z m 12.734,9.337 V 9.618 H 72.57 v 20.143 h 4.083 V 19.65 c 0,-4.241 1.779,-6.576 5.008,-6.576 0.498,0.005 0.994,0.082 1.47,0.228 l 0.268,0.076 0.132,-3.979 -1.755,-0.135 c -2.376,0.014 -4.529,1.437 -5.475,3.617 z m 29.148,-3.735 c -2.742,-0.021 -5.301,1.403 -6.73,3.743 V 9.618 h -3.732 v 28.35 h 4.085 V 26.975 c 1.431,1.999 3.766,3.161 6.223,3.097 5.164,0 8.5,-4.229 8.5,-10.776 0,-6.071 -3.353,-10.15 -8.346,-10.15 z m -1.136,17.629 c -3.231,0 -5.241,-2.76 -5.241,-7.205 0,-4.28 2.12,-7.046 5.399,-7.046 3.158,0 5.043,2.619 5.043,7.009 0,4.467 -1.993,7.242 -5.201,7.242 z"
           id="path110" />
        <path
           d="m 125.727,9.146 c -2.31,-0.04 -4.598,0.452 -6.688,1.436 l -0.127,0.059 0.046,3.486 0.318,-0.178 c 1.629,-0.991 3.486,-1.549 5.391,-1.621 2.957,0 4.652,1.696 4.652,4.653 v 0.173 h -2.334 c -6.724,0 -10.424,2.435 -10.424,6.855 0,3.547 2.669,6.026 6.496,6.026 2.572,0.096 5.027,-1.102 6.536,-3.187 v 2.913 h 3.694 V 17.567 c 0,-5.588 -2.542,-8.421 -7.56,-8.421 z m 3.592,12.113 c 0,3.472 -2.087,5.711 -5.321,5.711 l -0.235,0.009 c -1.712,0 -3.121,-1.408 -3.121,-3.12 l 0.001,-0.049 c 0,-2.443 2.335,-3.787 6.576,-3.787 h 2.1 z M 150.638,0 v 12.352 c -1.416,-2.07 -3.794,-3.281 -6.301,-3.206 -4.99,0 -8.342,4.111 -8.342,10.228 0,6.3 3.397,10.698 8.264,10.698 2.748,0.069 5.323,-1.377 6.693,-3.76 v 3.449 h 3.771 V 0 Z m -5.317,26.695 c -3.113,0 -5.046,-2.714 -5.046,-7.085 0,-4.376 1.95,-7.203 4.966,-7.203 3.38,0 5.397,2.693 5.397,7.203 0,4.305 -2.088,7.085 -5.317,7.085 z M 172.975,9.618 167.18,21.243 161.829,9.618 h -4.604 l 9.873,20.143 10.141,-20.143 z m 10.216,0 h -3.87 v 20.143 h 4.087 V 9.618 Z m 5.005,5.164 c 0,2.836 1.948,4.327 5.54,6.081 2.267,1.115 3.453,1.77 3.453,3.341 0,1.607 -1.459,2.651 -3.712,2.651 -1.786,-0.047 -3.538,-0.496 -5.126,-1.316 l -0.3,-0.145 -0.136,3.549 0.143,0.058 c 1.676,0.66 3.461,0.997 5.263,0.995 4.995,0 8.224,-2.381 8.224,-6.067 0,-3.074 -2.045,-4.63 -5.582,-6.283 -2.596,-1.215 -3.681,-1.93 -3.681,-3.218 0,-1.229 1.207,-2.021 3.079,-2.021 1.694,10e-4 3.367,0.383 4.894,1.118 l 0.292,0.139 0.185,-3.479 -0.165,-0.05 c -1.612,-0.488 -3.286,-0.741 -4.97,-0.754 -4.427,0 -7.401,2.17 -7.401,5.401 z m 26.088,-5.636 c -6.139,0 -9.952,4.04 -9.952,10.543 0,6.504 3.813,10.544 9.952,10.544 6.164,0 9.995,-4.04 9.995,-10.544 0,-6.503 -3.831,-10.543 -9.995,-10.543 z m 0.039,17.748 c -3.39,0 -5.672,-2.913 -5.672,-7.244 0,-4.355 2.282,-7.282 5.672,-7.282 3.448,0 5.675,2.856 5.675,7.282 0,4.4 -2.227,7.244 -5.675,7.244 z M 231.815,12.881 V 9.618 h -3.73 v 20.143 h 4.083 V 19.65 c 0,-4.241 1.781,-6.576 5.007,-6.576 0.498,0.005 0.994,0.081 1.47,0.228 l 0.269,0.076 0.133,-3.979 -1.755,-0.135 c -2.376,0.015 -4.53,1.437 -5.477,3.617 z"
           fill="#00af87"
           id="path112" />
        <path
           d="m 90.812,9.618 h -3.871 v 20.143 h 4.087 V 9.618 Z M 86.547,3.712 c 0.001,1.333 1.097,2.429 2.43,2.429 1.333,0 2.429,-1.097 2.429,-2.43 0,-1.332 -1.096,-2.429 -2.429,-2.429 -1.332,0.002 -2.428,1.098 -2.43,2.43 z"
           id="path114" />
        <path
           d="m 248.979,6.771 c 0.666,0.681 1.034,1.6 1.021,2.552 0.015,0.976 -0.377,1.915 -1.081,2.59 -0.686,0.674 -1.609,1.055 -2.571,1.062 -0.979,0 -1.916,-0.402 -2.591,-1.112 -0.67,-0.675 -1.047,-1.588 -1.049,-2.54 0.003,-0.987 0.402,-1.932 1.108,-2.623 0.672,-0.668 1.584,-1.04 2.532,-1.031 0.991,-0.011 1.944,0.388 2.631,1.102 z m -4.701,0.4 c -0.576,0.568 -0.899,1.344 -0.899,2.152 0.013,1.626 1.343,2.962 2.969,2.98 0.789,-0.001 1.547,-0.31 2.112,-0.86 1.152,-1.151 1.169,-3.04 0.039,-4.212 -0.559,-0.58 -1.333,-0.906 -2.139,-0.901 -0.779,-0.012 -1.53,0.292 -2.082,0.841 z m 2.14,0.069 c 1.151,0 1.732,0.412 1.732,1.161 0.006,0.514 -0.35,0.967 -0.851,1.082 l 0.889,1.759 h -1.208 l -0.751,-1.589 h -0.322 v 1.589 h -1.099 V 7.24 Z m -0.511,1.762 h 0.393 c 0.48,0 0.719,-0.171 0.719,-0.52 0,-0.39 -0.25,-0.55 -0.779,-0.55 h -0.333 z"
           fill="#00af87"
           fill-opacity="0.5"
           id="path116" />
      </g>
    </g>
  </g>
</svg>
